<svg xmlns="http://www.w3.org/2000/svg" version="1.1" xmlns:xlink="http://www.w3.org/1999/xlink" xmlns:svgjs="http://svgjs.com/svgjs" width="512" height="512" x="0" y="0" viewBox="0 0 512 512" style="enable-background:new 0 0 512 512" xml:space="preserve"><g><path d="M512 255.994c0 67.185-25.881 128.33-68.229 174.009-21.507 23.206-47.266 42.414-76.046 56.393-31.089 15.111-65.708 24.105-102.282 25.426-3.131.122-6.273.178-9.438.178-3.164 0-6.307-.056-9.438-.178-36.574-1.321-71.193-10.315-102.282-25.426-28.779-13.979-54.539-33.187-76.057-56.393C25.893 384.325 0 323.18 0 255.994 0 114.618 114.618 0 256.006 0S512 114.618 512 255.994z" style="" fill="#27536b" data-original="#27536b"></path><path d="m83.953 176.329 36.997-4.09-36.997-4.089-4.089-36.997-4.09 36.997-36.996 4.089 36.996 4.09 4.09 36.996z" style="" fill="#ffffff" data-original="#ffffff"></path><path d="M393.377 211.882H118.623c-14.577 0-26.394 11.817-26.394 26.394v120.42c0 14.577 11.817 26.394 26.394 26.394h274.754c14.577 0 26.394-11.817 26.394-26.394v-120.42c.001-14.577-11.817-26.394-26.394-26.394z" style="" fill="#cccccc" data-original="#cccccc"></path><path d="m439.999 340.623 23.646-2.614-23.646-2.614-2.613-23.645-2.614 23.645-23.645 2.614 23.645 2.614 2.614 23.645z" style="" fill="#ffffff" data-original="#ffffff"></path><path d="M443.778 389.028v30.378h-35.43V381.8h35.075c.233 2.376.355 4.785.355 7.228z" style="" fill="#f77759" data-original="#f77759"></path><path d="M164.855 163.379c20.929-27.447 53.972-45.157 91.146-45.157 37.184 0 70.227 17.71 91.157 45.157 14.701 19.264 23.428 43.325 23.428 69.428 0 2.121-.056 4.23-.178 6.329-1.654 30.478-15.211 57.77-36.119 77.334-20.474 19.186-48.01 30.922-78.288 30.922-30.267 0-57.792-11.736-78.277-30.911-20.896-19.564-34.464-46.866-36.13-77.345a119.78 119.78 0 0 1-.167-6.329c.001-26.104 8.728-50.164 23.428-69.428zm179.916 74.024c0-47.699-39.738-68.706-88.77-68.706-49.02 0-88.77 21.007-88.77 68.706 0 47.71 39.749 86.383 88.77 86.383 49.032 0 88.77-38.672 88.77-86.383z" style="" fill="#f2f2f2" data-original="#f2f2f2"></path><path d="M295.972 337.398c-30.267 0-57.792-11.736-78.277-30.911-20.896-19.564-34.464-46.866-36.13-77.345a119.78 119.78 0 0 1-.167-6.329c0-26.104 8.727-50.164 23.428-69.428a114.974 114.974 0 0 1 43.781-34.923c-34.141 2.175-64.222 19.303-83.752 44.916-14.701 19.264-23.428 43.325-23.428 69.428 0 2.121.056 4.23.167 6.329 1.665 30.478 15.234 57.781 36.13 77.345 20.485 19.175 48.01 30.911 78.277 30.911 16.91 0 32.963-3.664 47.409-10.238a115.92 115.92 0 0 1-7.438.245z" style="" fill="#e6e6e6" data-original="#e6e6e6"></path><path d="M256.001 328.227c-51.397 0-93.211-40.743-93.211-90.824 0-39.927 26.817-66.159 73.577-71.97 6.272-.782 12.879-1.178 19.634-1.178 26.55 0 49.135 5.97 65.314 17.265 18.251 12.741 27.897 32.064 27.897 55.882 0 35.163-21.132 67.479-53.835 82.332-12.364 5.635-25.614 8.493-39.376 8.493zm0-155.089c-6.39 0-12.627.373-18.538 1.109-57.243 7.114-65.791 42.623-65.791 63.156 0 45.183 37.83 81.941 84.328 81.941 12.483 0 24.494-2.589 35.698-7.694 29.543-13.417 48.631-42.561 48.631-74.247 0-21.084-8.109-37.435-24.099-48.599-14.68-10.249-35.508-15.666-60.229-15.666z" style="" fill="#cccccc" data-original="#cccccc"></path><path d="M344.771 237.403c0 34.653-20.963 64.543-51.23 78.288-11.403 5.196-24.127 8.094-37.54 8.094-49.02 0-88.77-38.672-88.77-86.383 0-41.326 29.834-62.611 69.683-67.563 6.151-.766 12.535-1.144 19.086-1.144 49.033.002 88.771 21.009 88.771 68.708z" style="" fill="#46b5d3" data-original="#46b5d3"></path><path d="M344.771 237.403c0 34.653-20.963 64.543-51.23 78.288a85.214 85.214 0 0 1-7.561.322c-49.02 0-88.77-38.672-88.77-86.383 0-30.045 15.778-49.509 39.705-59.79 6.151-.766 12.535-1.144 19.086-1.144 49.032.001 88.77 21.008 88.77 68.707z" style="" fill="#51bee5" data-original="#51bee5"></path><path d="M367.732 316.48v.389c-25.015 34.631-65.731 57.17-111.72 57.17-45.978 0-86.705-22.517-111.72-57.137v-.422h33.432c20.485 19.175 48.01 30.911 78.277 30.911 30.278 0 57.814-11.736 78.288-30.922l.011.011h33.432z" style="" fill="#cccccc" data-original="#cccccc"></path><path d="M144.288 316.902v169.49c-28.779-13.979-54.539-33.187-76.057-56.393v-40.971c0-28.802 16.777-53.684 41.093-65.387 9.515-4.597 20.174-7.162 31.444-7.162h3.209c.1.145.2.29.311.423zM443.773 419.406v10.592c-21.507 23.206-47.266 42.414-76.046 56.393V316.869c.1-.122.2-.255.289-.389h3.209c11.27 0 21.929 2.565 31.444 7.162 22.262 10.715 38.206 32.466 40.749 58.158h-35.075v37.606h35.43z" style="" fill="#e6e6e6" data-original="#e6e6e6"></path><path d="M256.008 374.039v137.957c-40.06 0-77.966-9.205-111.72-25.604v-169.49c25.015 34.62 65.742 57.137 111.72 57.137z" style="" fill="#f2f2f2" data-original="#f2f2f2"></path><path d="M256.008 374.039v137.957c40.06 0 77.966-9.205 111.72-25.604V316.869c-25.016 34.63-65.731 57.17-111.72 57.17z" style="" fill="#f2f2f2" data-original="#f2f2f2"></path><ellipse cx="314.108" cy="231.812" rx="16.655" ry="27.758" style="" fill="#73d5ef" data-original="#73d5ef"></ellipse><path d="m458.895 210.223 36.995-4.091-36.995-4.089-4.091-36.997-4.089 36.997-36.997 4.089 36.997 4.091 4.089 36.996z" style="" fill="#ffffff" data-original="#ffffff"></path><path d="M443.732 282.139h10.362v10.362h-10.362z" style="" transform="rotate(-134.999 448.915 287.322)" fill="#ffffff" data-original="#ffffff"></path><path d="M43.95 320.557h10.362v10.362H43.95z" style="" transform="rotate(-134.999 49.13 325.74)" fill="#ffffff" data-original="#ffffff"></path><path d="M48.749 245.556h10.362v10.362H48.749z" style="" transform="rotate(-134.999 53.93 250.739)" fill="#ffffff" data-original="#ffffff"></path><path d="M316.336 37.129h10.362v10.362h-10.362z" style="" transform="rotate(-134.999 321.518 42.311)" fill="#ffffff" data-original="#ffffff"></path><path d="M201.241 54.975h10.362v10.362h-10.362z" style="" transform="rotate(-134.999 206.423 60.157)" fill="#ffffff" data-original="#ffffff"></path><path d="M265.443 365.105v146.717c-3.131.122-6.273.178-9.438.178-3.164 0-6.307-.055-9.438-.178V365.105h18.876z" style="" fill="#cccccc" data-original="#cccccc"></path><path d="M309.366 403.966H202.647c-8.549 0-15.48 6.931-15.48 15.48v45.652c0 8.549 6.931 15.48 15.48 15.48h106.719c8.549 0 15.48-6.931 15.48-15.48v-45.652c0-8.549-6.93-15.48-15.48-15.48z" style="" fill="#cccccc" data-original="#cccccc"></path><path d="M202.647 466.144a1.047 1.047 0 0 1-1.046-1.046v-45.652c0-.577.469-1.046 1.046-1.046h106.719c.577 0 1.046.469 1.046 1.046v45.652c0 .577-.47 1.046-1.046 1.046H202.647z" style="" fill="#b3b3b3" data-original="#b3b3b3"></path><circle cx="221.408" cy="443.194" r="12.213" style="" fill="#f77759" data-original="#f77759"></circle><circle cx="290.614" cy="443.194" r="12.213" style="" fill="#f77759" data-original="#f77759"></circle><circle cx="256.006" cy="443.194" r="12.213" style="" fill="#f77759" data-original="#f77759"></circle><path d="M68.231 389.028v30.378h35.43V381.8H68.586a74.009 74.009 0 0 0-.355 7.228z" style="" fill="#f77759" data-original="#f77759"></path></g></svg>